<svg width="45" height="35" viewBox="0 0 45 35" fill="none" xmlns="http://www.w3.org/2000/svg">
<path d="M7.31537 15.7329C6.3773 16.671 6.3773 18.1977 7.31537 19.145C8.25345 20.083 9.78012 20.083 10.7274 19.145C17.2203 12.652 27.7875 12.652 34.2804 19.145C34.7495 19.614 35.3657 19.8531 35.9818 19.8531C36.598 19.8531 37.2142 19.614 37.6832 19.145C38.6213 18.2069 38.6213 16.6802 37.6832 15.7329C29.3141 7.35464 15.6845 7.35464 7.31537 15.7329Z" fill="#8D448B"/>
<path d="M13.8276 22.2443C12.8895 23.1824 12.8895 24.709 13.8276 25.6563C14.7657 26.5944 16.2923 26.5944 17.2396 25.6563C20.1366 22.7501 24.8638 22.7501 27.7608 25.6563C28.2298 26.1253 28.846 26.3645 29.4622 26.3645C30.0784 26.3645 30.6945 26.1253 31.1636 25.6563C32.1017 24.7182 32.1017 23.1916 31.1636 22.2535C26.3904 17.462 18.6099 17.462 13.8276 22.2443Z" fill="#8D448B"/>
<path d="M22.4997 34.1176C24.2724 34.1176 25.7094 32.6806 25.7094 30.9079C25.7094 29.1353 24.2724 27.6982 22.4997 27.6982C20.7271 27.6982 19.29 29.1353 19.29 30.9079C19.29 32.6806 20.7271 34.1176 22.4997 34.1176Z" fill="#8D448B"/>
<path d="M44.2964 9.11131C32.2762 -2.89973 12.7238 -2.89973 0.703556 9.11131C-0.234519 10.0494 -0.234519 11.576 0.703556 12.5233C1.64163 13.4614 3.1683 13.4614 4.11557 12.5233C14.2505 2.37924 30.7495 2.37924 40.8936 12.5233C41.3627 12.9924 41.9788 13.2315 42.595 13.2315C43.2112 13.2315 43.8274 12.9924 44.2964 12.5233C45.2345 11.5852 45.2345 10.0586 44.2964 9.11131Z" fill="#8D448B"/>
</svg>
