<svg width="43" height="36" viewBox="0 0 43 36" fill="none" xmlns="http://www.w3.org/2000/svg">
<path d="M29.155 20.9067C29.8973 21.2381 30.6289 21.5646 31.3206 21.9622C32.1819 22.458 32.8753 23.175 33.3869 24.0111L33.4281 24.0784L33.504 24.0994C35.3731 24.6185 37.1683 25.3431 38.8303 26.2981C39.1117 26.4605 39.3001 26.7956 39.3001 27.1868V32.7997H34.5001H34.3001V32.9997V35.4998V35.6997H34.5001H40.7501C41.5515 35.6997 42.2001 35.0511 42.2001 34.2497V27.1868C42.2002 25.7719 41.4639 24.4664 40.2735 23.7833C36.8826 21.8338 33.0276 20.726 29.0383 20.4295L28.9417 20.8115C29.0129 20.8433 29.084 20.8751 29.155 20.9067Z" fill="#8D448B" stroke="#8D448B" stroke-width="0.4"/>
<path d="M29.2735 23.7836L29.2735 23.7835C21.3432 19.2241 10.6569 19.2241 2.72645 23.7835L2.7264 23.7836C1.53509 24.4689 0.8 25.7732 0.8 27.1869V34.2499C0.8 35.0513 1.44861 35.6999 2.25001 35.6999H29.7499C30.5513 35.6999 31.1999 35.0513 31.1999 34.2499V27.1857C31.1999 25.7731 30.4648 24.4689 29.2735 23.7836ZM28.3 27.1857V32.7999H3.70009V27.1869C3.70009 26.7958 3.88846 26.4606 4.17098 26.2983L4.17102 26.2983C11.2235 22.2444 20.7765 22.2444 27.8291 26.2983L27.8291 26.2983C28.1118 26.4607 28.3 26.7959 28.3 27.1857Z" fill="#8D448B" stroke="#8D448B" stroke-width="0.4"/>
<path d="M26.2113 3.16924L26.2783 3.27034L26.3989 3.25772C26.4695 3.25033 26.5353 3.24197 26.5985 3.23396C26.7386 3.21618 26.8654 3.20009 27.0006 3.20009C30.3363 3.20009 33.0506 5.91452 33.0506 9.25006C33.0506 12.5856 30.3362 15.3 27.0006 15.3C26.8659 15.3 26.7397 15.284 26.6 15.2662C26.5365 15.2581 26.4702 15.2496 26.399 15.2422L26.2784 15.2296L26.2115 15.3307C25.6927 16.114 25.0558 16.8052 24.3528 17.437L24.0902 17.6729L24.4276 17.7768C25.2549 18.0316 26.1152 18.2 27.0006 18.2C31.9353 18.2 35.9506 14.1847 35.9506 9.24999C35.9506 4.31528 31.9354 0.3 27.0006 0.3C26.1151 0.3 25.2547 0.46838 24.4275 0.723133L24.0901 0.827028L24.3526 1.06302C25.0557 1.69496 25.6926 2.38596 26.2113 3.16924Z" fill="#8D448B" stroke="#8D448B" stroke-width="0.4"/>
<path d="M16 18.2C20.9346 18.2 24.95 14.1847 24.95 9.25C24.95 4.31529 20.9347 0.3 16 0.3C11.0653 0.3 7.05 4.31529 7.05 9.25C7.05 14.1847 11.0654 18.2 16 18.2ZM16 3.20002C19.3356 3.20002 22.05 5.91446 22.05 9.25C22.05 12.5856 19.3355 15.3 16 15.3C12.6644 15.3 9.95002 12.5856 9.95002 9.25C9.95002 5.91446 12.6644 3.20002 16 3.20002Z" fill="#8D448B" stroke="#8D448B" stroke-width="0.4"/>
</svg>
